<svg id="Capa_1" enable-background="new 0 0 512 512" height="512" viewBox="0 0 512 512" width="512" xmlns="http://www.w3.org/2000/svg"><g><path d="m256 0c-140.832 0-256 115.166-256 256 0 140.832 115.168 256 256 256s256-115.168 256-256c0-140.834-115.168-256-256-256zm-168.038 354.461c-17.069-28.912-26.962-62.521-26.962-98.461 0-107.153 86.42-194.7 194.456-195 .185 0 .359.037.544.037 35.934.002 69.553 9.857 98.463 26.926 8.604 5.081 10.508 16.655 3.442 23.721-19.675 19.673-59.385 59.381-101.906 101.9-56.572 56.57-118.143 118.138-144.32 144.313-7.063 7.064-18.637 5.167-23.717-3.436zm168.611 96.537c-.194 0-.379-.038-.573-.038-35.931 0-69.543-9.851-98.452-26.917-8.608-5.079-10.415-16.754-3.347-23.822l101.799-101.805 144.207-144.214c7.07-7.07 18.752-5.27 23.835 3.338 17.067 28.913 26.958 62.52 26.958 98.46.002 107.807-87.065 194.685-194.427 194.998z" fill="#ff6c6c"/><path d="m512 256c0-140.834-115.168-256-256-256v61.037c35.934.002 69.553 9.857 98.463 26.926 8.604 5.081 10.508 16.655 3.442 23.721-19.675 19.673-59.385 59.381-101.906 101.9v84.833l144.207-144.214c7.07-7.07 18.752-5.27 23.835 3.338 17.068 28.912 26.959 62.519 26.959 98.459.002 107.807-87.065 194.685-194.427 194.998-.194 0-.379-.038-.573-.038v61.04c140.832 0 256-115.168 256-256z" fill="#e63950"/></g></svg>